<svg id="Layer_1" data-name="Layer 1" xmlns="http://www.w3.org/2000/svg" viewBox="0 0 969.43 91.58"><defs><style>.cls-1{fill:none;stroke:#587485;stroke-linecap:round;stroke-linejoin:round;}</style></defs><title>digitaldesigner</title><path class="cls-1" d="M442.2,578.15V492.33h17c7.59,0,20.84,1.16,31.65,12,9.14,9.13,12.35,21.61,12.35,31s-3.21,21.74-12.35,30.87c-10.81,10.81-24.06,12-31.65,12Zm5.66-5.15h11.19c22.65,0,38.21-15.44,38.21-37.69,0-22-15.69-37.83-38.21-37.83H447.86Z" transform="translate(-441.7 -489.26)"/><path class="cls-1" d="M527.37,492.33v85.82h-5.66V492.33Z" transform="translate(-441.7 -489.26)"/><path class="cls-1" d="M595.3,537h36c0,7.85-1.67,19.17-8.75,28.18-7.59,9.64-19.17,14.41-32.29,14.41-25.22,0-44.39-18.53-44.39-44.14s19.81-44.26,44.77-44.26a41.59,41.59,0,0,1,26.89,9.27,49.09,49.09,0,0,1,10.3,10.81l-4.51,3.6a39.4,39.4,0,0,0-8.23-9.52,38.57,38.57,0,0,0-24.58-9c-22,0-38.72,17.5-38.72,39.37,0,21.49,16.21,38.73,38.34,38.73,14.66,0,25.22-7.46,29.85-14.54a38.49,38.49,0,0,0,5.66-17.75H595.3Z" transform="translate(-441.7 -489.26)"/><path class="cls-1" d="M655.52,492.33v85.82h-5.67V492.33Z" transform="translate(-441.7 -489.26)"/><path class="cls-1" d="M696.82,497.48v80.67h-5.66V497.48H668.9v-5.15h50.18v5.15Z" transform="translate(-441.7 -489.26)"/><path class="cls-1" d="M770.16,550H733.62l-11.45,28.18H716l36.15-88.39,35.64,88.39h-6.17Zm-2.06-5.14L752,504.17l-16.34,40.66Z" transform="translate(-441.7 -489.26)"/><path class="cls-1" d="M806.82,492.33V573h23.94v5.15h-29.6V492.33Z" transform="translate(-441.7 -489.26)"/><path class="cls-1" d="M874.11,578.15V492.33h17c7.59,0,20.84,1.16,31.65,12,9.13,9.13,12.35,21.61,12.35,31s-3.22,21.74-12.35,30.87c-10.81,10.81-24.06,12-31.65,12Zm5.66-5.15H891c22.64,0,38.21-15.44,38.21-37.69,0-22-15.7-37.83-38.21-37.83h-11.2Z" transform="translate(-441.7 -489.26)"/><path class="cls-1" d="M994.8,497.48H959.29v31.14H994v5.14H959.29V573H994.8v5.15H953.63V492.33H994.8Z" transform="translate(-441.7 -489.26)"/><path class="cls-1" d="M1052.44,506.87c-5.28-10.29-14.54-10.55-16.86-10.55-10.16,0-15.95,7.34-15.95,16,0,9.26,6.43,12.35,15.05,16.59s12.74,5.92,17.11,9c3.74,2.57,9.14,7.08,9.14,16.6,0,14.41-12.1,25.09-26.76,25.09-11.07,0-16.73-5.28-20-9a28.3,28.3,0,0,1-5.53-9.39l4.89-2.32a30,30,0,0,0,4.63,8.24c3.86,4.88,10.17,7.33,16.09,7.33,11.58,0,20.71-8.49,20.71-19.81,0-4.64-1.8-9.53-8.36-13.51-2.45-1.42-7.47-4-14.54-7.47-8.49-4.11-12.74-6.43-15.7-11.32a18.45,18.45,0,0,1-2.7-9.78c0-9.9,6.69-21.36,22-21.36a23,23,0,0,1,20.84,12.23Z" transform="translate(-441.7 -489.26)"/><path class="cls-1" d="M1085.12,492.33v85.82h-5.66V492.33Z" transform="translate(-441.7 -489.26)"/><path class="cls-1" d="M1153.05,537h36c0,7.85-1.68,19.17-8.75,28.18-7.59,9.64-19.17,14.41-32.3,14.41-25.22,0-44.39-18.53-44.39-44.14s19.82-44.26,44.78-44.26a41.61,41.61,0,0,1,26.89,9.27,49.07,49.07,0,0,1,10.29,10.81l-4.5,3.6a39.41,39.41,0,0,0-8.24-9.52,38.52,38.52,0,0,0-24.57-9c-22,0-38.73,17.5-38.73,39.37,0,21.49,16.21,38.73,38.34,38.73,14.67,0,25.22-7.46,29.85-14.54a38.26,38.26,0,0,0,5.66-17.75h-30.36Z" transform="translate(-441.7 -489.26)"/><path class="cls-1" d="M1207.6,578.15V491.43l72.05,75.4v-74.5h5.66v88l-72-75.4v73.21Z" transform="translate(-441.7 -489.26)"/><path class="cls-1" d="M1349.64,497.48h-35.51v31.14h34.74v5.14h-34.74V573h35.51v5.15h-41.17V492.33h41.17Z" transform="translate(-441.7 -489.26)"/><path class="cls-1" d="M1404.2,578.15l-27.8-40.53h-2.57v40.53h-5.66V492.33h12.35c6.56,0,12.48.52,18.14,4.38,6.69,4.63,8.88,11.71,8.88,18.4,0,8.49-3.73,17.24-14.41,20.84a32.91,32.91,0,0,1-10.55,1.67l28.05,40.53Zm-30.37-45.67h8.24c12.22,0,19.55-6.44,19.55-17.5,0-8.62-4.24-13.13-7.59-14.93-3.6-2.06-9.78-2.57-13.12-2.57h-7.08Z" transform="translate(-441.7 -489.26)"/></svg>