<svg id="Layer_1" data-name="Layer 1" xmlns="http://www.w3.org/2000/svg" viewBox="0 0 1241.68 91.45"><defs><style>.cls-1{fill:none;stroke:#587485;stroke-linecap:round;stroke-linejoin:round;}</style></defs><title>front-end</title><path class="cls-1" d="M353.94,364.48H324.86v31.14h28.3v5.14h-28.3v44.39H319.2V359.33h34.74Z" transform="translate(-318.7 -357.67)"/><path class="cls-1" d="M407.46,445.15l-27.79-40.53h-2.58v40.53h-5.66V359.33h12.35c6.57,0,12.48.52,18.14,4.38,6.7,4.63,8.88,11.71,8.88,18.4,0,8.49-3.73,17.24-14.41,20.84a32.91,32.91,0,0,1-10.55,1.67l28.05,40.53Zm-30.37-45.67h8.24c12.22,0,19.55-6.44,19.55-17.5,0-8.62-4.24-13.13-7.59-14.93-3.6-2.06-9.78-2.57-13.12-2.57h-7.08Z" transform="translate(-318.7 -357.67)"/><path class="cls-1" d="M514.63,402.43c0,24.71-19.42,44.14-44.51,44.14s-44.52-19.43-44.52-44.14,19.43-44.26,44.52-44.26S514.63,377.73,514.63,402.43Zm-5.92,0c0-22-16.46-39.11-38.59-39.11s-38.6,17.11-38.6,39.11,16.47,39,38.6,39S508.71,424.31,508.71,402.43Z" transform="translate(-318.7 -357.67)"/><path class="cls-1" d="M533.16,445.15V358.43l72.05,75.4v-74.5h5.66v88l-72-75.4v73.21Z" transform="translate(-318.7 -357.67)"/><path class="cls-1" d="M652.17,364.48v80.67h-5.66V364.48H624.25v-5.15h50.18v5.15Z" transform="translate(-318.7 -357.67)"/><path class="cls-1" d="M680.09,415.56h25.73v5.92H680.09Z" transform="translate(-318.7 -357.67)"/><path class="cls-1" d="M765,364.48H729.5v31.14h34.74v5.14H729.5V440H765v5.15H723.84V359.33H765Z" transform="translate(-318.7 -357.67)"/><path class="cls-1" d="M783.53,445.15V358.43l72.05,75.4v-74.5h5.67v88l-72.06-75.4v73.21Z" transform="translate(-318.7 -357.67)"/><path class="cls-1" d="M884.4,445.15V359.33h17c7.59,0,20.84,1.16,31.65,12,9.13,9.13,12.35,21.61,12.35,31s-3.22,21.74-12.35,30.87c-10.81,10.81-24.06,12-31.65,12Zm5.67-5.15h11.19c22.64,0,38.21-15.44,38.21-37.69,0-22-15.69-37.83-38.21-37.83H890.07Z" transform="translate(-318.7 -357.67)"/><path class="cls-1" d="M993.89,445.15V359.33h17c7.59,0,20.84,1.16,31.65,12,9.13,9.13,12.35,21.61,12.35,31s-3.22,21.74-12.35,30.87c-10.81,10.81-24.06,12-31.65,12Zm5.66-5.15h11.2c22.64,0,38.21-15.44,38.21-37.69,0-22-15.7-37.83-38.21-37.83h-11.2Z" transform="translate(-318.7 -357.67)"/><path class="cls-1" d="M1114.58,364.48h-35.51v31.14h34.74v5.14h-34.74V440h35.51v5.15h-41.17V359.33h41.17Z" transform="translate(-318.7 -357.67)"/><path class="cls-1" d="M1129.5,359.33l25.22,73.08,24.45-73.08h6.17l-30.62,89.29-31.39-89.29Z" transform="translate(-318.7 -357.67)"/><path class="cls-1" d="M1239.89,364.48h-35.51v31.14h34.74v5.14h-34.74V440h35.51v5.15h-41.17V359.33h41.17Z" transform="translate(-318.7 -357.67)"/><path class="cls-1" d="M1264.08,359.33V440H1288v5.15h-29.59V359.33Z" transform="translate(-318.7 -357.67)"/><path class="cls-1" d="M1381.81,402.43c0,24.71-19.43,44.14-44.52,44.14s-44.52-19.43-44.52-44.14,19.43-44.26,44.52-44.26S1381.81,377.73,1381.81,402.43Zm-5.92,0c0-22-16.47-39.11-38.6-39.11s-38.6,17.11-38.6,39.11,16.47,39,38.6,39S1375.89,424.31,1375.89,402.43Z" transform="translate(-318.7 -357.67)"/><path class="cls-1" d="M1406,404.36v40.79h-5.67V359.33h16.6c14,0,25.09,7.72,25.09,22.39,0,14.28-10.16,22.64-25,22.64Zm0-5.14h11.32c11.19,0,18.78-6.56,18.78-17.37s-7.2-17.37-19.68-17.37H1406Z" transform="translate(-318.7 -357.67)"/><path class="cls-1" d="M1498.89,364.48h-35.51v31.14h34.74v5.14h-34.74V440h35.51v5.15h-41.17V359.33h41.17Z" transform="translate(-318.7 -357.67)"/><path class="cls-1" d="M1553.44,445.15l-27.79-40.53h-2.57v40.53h-5.66V359.33h12.35c6.56,0,12.48.52,18.14,4.38,6.69,4.63,8.88,11.71,8.88,18.4,0,8.49-3.74,17.24-14.41,20.84a33,33,0,0,1-10.55,1.67l28,40.53Zm-30.36-45.67h8.23c12.22,0,19.56-6.44,19.56-17.5,0-8.62-4.25-13.13-7.59-14.93-3.61-2.06-9.78-2.57-13.13-2.57h-7.07Z" transform="translate(-318.7 -357.67)"/></svg>