<svg id="Layer_3" data-name="Layer 3" xmlns="http://www.w3.org/2000/svg" xmlns:xlink="http://www.w3.org/1999/xlink" viewBox="0 0 814.5 807"><defs><style>.cls-1{fill:url(#radial-gradient);}.cls-11,.cls-12,.cls-13,.cls-14,.cls-17,.cls-18,.cls-19,.cls-2,.cls-21,.cls-22,.cls-23,.cls-24,.cls-25,.cls-26,.cls-27,.cls-28,.cls-29,.cls-3,.cls-30,.cls-31,.cls-32,.cls-33,.cls-34,.cls-35,.cls-36,.cls-37,.cls-38,.cls-39,.cls-40,.cls-41,.cls-42,.cls-43,.cls-44,.cls-45,.cls-46,.cls-47,.cls-48,.cls-49,.cls-5,.cls-50,.cls-51,.cls-52,.cls-53,.cls-54,.cls-55,.cls-56,.cls-57,.cls-58,.cls-59,.cls-60,.cls-7,.cls-8,.cls-9{fill:none;stroke-linecap:round;stroke-linejoin:round;}.cls-2{stroke:url(#radial-gradient-2);}.cls-3{stroke:url(#radial-gradient-3);}.cls-4{fill:url(#radial-gradient-4);}.cls-5{stroke:url(#radial-gradient-5);}.cls-6{fill:url(#radial-gradient-6);}.cls-7{stroke:url(#radial-gradient-7);}.cls-8{stroke:url(#radial-gradient-8);}.cls-9{stroke:url(#radial-gradient-9);}.cls-10{fill:url(#radial-gradient-10);}.cls-11{stroke:url(#radial-gradient-11);}.cls-12{stroke:url(#radial-gradient-12);}.cls-13{stroke:url(#radial-gradient-13);}.cls-14{stroke:url(#radial-gradient-14);}.cls-15{fill:url(#radial-gradient-15);}.cls-16{fill:url(#radial-gradient-16);}.cls-17{stroke:url(#radial-gradient-17);}.cls-18{stroke:url(#radial-gradient-18);}.cls-19{stroke:url(#radial-gradient-19);}.cls-20{fill:url(#radial-gradient-20);}.cls-21{stroke:url(#radial-gradient-21);}.cls-22{stroke:url(#radial-gradient-22);}.cls-23{stroke:url(#radial-gradient-23);}.cls-24{stroke:url(#radial-gradient-24);}.cls-25{stroke:url(#radial-gradient-25);}.cls-26{stroke:url(#radial-gradient-26);}.cls-27{stroke:url(#radial-gradient-27);}.cls-28{stroke:url(#radial-gradient-28);}.cls-29{stroke:url(#radial-gradient-29);}.cls-30{stroke:url(#radial-gradient-30);}.cls-31{stroke:url(#radial-gradient-31);}.cls-32{stroke:url(#radial-gradient-32);}.cls-33{stroke:url(#radial-gradient-33);}.cls-34{stroke:url(#radial-gradient-34);}.cls-35{stroke:url(#radial-gradient-35);}.cls-36{stroke:url(#radial-gradient-36);}.cls-37{stroke:url(#radial-gradient-37);}.cls-38{stroke:url(#radial-gradient-38);}.cls-39{stroke:url(#radial-gradient-39);}.cls-40{stroke:url(#radial-gradient-40);}.cls-41{stroke:url(#radial-gradient-41);}.cls-42{stroke:url(#radial-gradient-42);}.cls-43{stroke:url(#radial-gradient-43);}.cls-44{stroke:url(#radial-gradient-44);}.cls-45{stroke:url(#radial-gradient-45);}.cls-46{stroke:url(#radial-gradient-46);}.cls-47{stroke:url(#radial-gradient-47);}.cls-48{stroke:url(#radial-gradient-48);}.cls-49{stroke:url(#radial-gradient-49);}.cls-50{stroke:url(#radial-gradient-50);}.cls-51{stroke:url(#radial-gradient-51);}.cls-52{stroke:url(#radial-gradient-52);}.cls-53{stroke:url(#radial-gradient-53);}.cls-54{stroke:url(#radial-gradient-54);}.cls-55{stroke:url(#radial-gradient-55);}.cls-56{stroke:url(#radial-gradient-56);}.cls-57{stroke:url(#radial-gradient-57);}.cls-58{stroke:url(#radial-gradient-58);}.cls-59{stroke:url(#radial-gradient-59);}.cls-60{stroke:url(#radial-gradient-60);}</style><radialGradient id="radial-gradient" cx="979.05" cy="761.27" r="21.66" gradientUnits="userSpaceOnUse"><stop offset="0" stop-color="#002a6a"/><stop offset="0.16" stop-color="#1b4172"/><stop offset="0.36" stop-color="#36577b"/><stop offset="0.57" stop-color="#496780"/><stop offset="0.78" stop-color="#547184"/><stop offset="1" stop-color="#587485"/></radialGradient><radialGradient id="radial-gradient-2" cx="979.48" cy="760.59" r="11.94" xlink:href="#radial-gradient"/><radialGradient id="radial-gradient-3" cx="978" cy="751.5" r="27.01" xlink:href="#radial-gradient"/><radialGradient id="radial-gradient-4" cx="979.34" cy="733.14" r="32.55" xlink:href="#radial-gradient"/><radialGradient id="radial-gradient-5" cx="979.66" cy="755.63" r="6.61" xlink:href="#radial-gradient"/><radialGradient id="radial-gradient-6" cx="1110.98" cy="768.55" r="22.55" xlink:href="#radial-gradient"/><radialGradient id="radial-gradient-7" cx="1112" cy="757.41" r="24.3" xlink:href="#radial-gradient"/><radialGradient id="radial-gradient-8" cx="1108.67" cy="767.94" r="11.57" xlink:href="#radial-gradient"/><radialGradient id="radial-gradient-9" cx="1109.43" cy="762.62" r="6.78" xlink:href="#radial-gradient"/><radialGradient id="radial-gradient-10" cx="1110.61" cy="740.21" r="31.41" xlink:href="#radial-gradient"/><radialGradient id="radial-gradient-11" cx="1020.22" cy="807.03" r="30.27" xlink:href="#radial-gradient"/><radialGradient id="radial-gradient-12" cx="1029" cy="839.01" r="7.38" xlink:href="#radial-gradient"/><radialGradient id="radial-gradient-13" cx="1045" cy="850.65" r="6.47" xlink:href="#radial-gradient"/><radialGradient id="radial-gradient-14" cx="1071.5" cy="839.46" r="7.17" xlink:href="#radial-gradient"/><radialGradient id="radial-gradient-15" cx="1039.94" cy="805.48" r="157.87" xlink:href="#radial-gradient"/><radialGradient id="radial-gradient-16" cx="1048.99" cy="889.5" r="42.39" xlink:href="#radial-gradient"/><radialGradient id="radial-gradient-17" cx="1049" cy="901.06" r="24.92" xlink:href="#radial-gradient"/><radialGradient id="radial-gradient-18" cx="1050.5" cy="912.76" r="40.12" xlink:href="#radial-gradient"/><radialGradient id="radial-gradient-19" cx="905.29" cy="817.81" r="25.42" xlink:href="#radial-gradient"/><radialGradient id="radial-gradient-20" cx="903.81" cy="807.62" r="11.08" xlink:href="#radial-gradient"/><radialGradient id="radial-gradient-21" cx="952.3" cy="968" r="23.45" xlink:href="#radial-gradient"/><radialGradient id="radial-gradient-22" cx="1129.5" cy="967" r="10.61" xlink:href="#radial-gradient"/><radialGradient id="radial-gradient-23" cx="1049" cy="894.53" r="17.71" xlink:href="#radial-gradient"/><radialGradient id="radial-gradient-24" cx="1050" cy="902.05" r="19.85" xlink:href="#radial-gradient"/><radialGradient id="radial-gradient-25" cx="1055" cy="939.98" r="18.51" xlink:href="#radial-gradient"/><radialGradient id="radial-gradient-26" cx="911" cy="838" r="153.52" xlink:href="#radial-gradient"/><radialGradient id="radial-gradient-27" cx="812" cy="927" r="163.19" xlink:href="#radial-gradient"/><radialGradient id="radial-gradient-28" cx="1049" cy="655.67" r="150.19" xlink:href="#radial-gradient"/><radialGradient id="radial-gradient-29" cx="1195.5" cy="927.71" r="276.27" xlink:href="#radial-gradient"/><radialGradient id="radial-gradient-30" cx="971" cy="639.04" r="58.93" xlink:href="#radial-gradient"/><radialGradient id="radial-gradient-31" cx="1049.57" cy="588" r="33.76" xlink:href="#radial-gradient"/><radialGradient id="radial-gradient-32" cx="1246.45" cy="1053.5" r="93.06" xlink:href="#radial-gradient"/><radialGradient id="radial-gradient-33" cx="1209.5" cy="816" r="57.3" xlink:href="#radial-gradient"/><radialGradient id="radial-gradient-34" cx="1217.81" cy="1073.5" r="200.12" xlink:href="#radial-gradient"/><radialGradient id="radial-gradient-35" cx="783.75" cy="1174" r="170.17" xlink:href="#radial-gradient"/><radialGradient id="radial-gradient-36" cx="788.11" cy="1288" r="39.06" xlink:href="#radial-gradient"/><radialGradient id="radial-gradient-37" cx="1267.5" cy="1260" r="9.2" xlink:href="#radial-gradient"/><radialGradient id="radial-gradient-38" cx="1266.5" cy="1324.5" r="14.53" xlink:href="#radial-gradient"/><radialGradient id="radial-gradient-39" cx="1375" cy="1220" r="94.58" xlink:href="#radial-gradient"/><radialGradient id="radial-gradient-40" cx="1014.5" cy="1076.27" r="75.13" xlink:href="#radial-gradient"/><radialGradient id="radial-gradient-41" cx="390.5" cy="252" r="1" xlink:href="#radial-gradient"/><radialGradient id="radial-gradient-42" cx="399.5" cy="262" r="1" xlink:href="#radial-gradient"/><radialGradient id="radial-gradient-43" cx="385.5" cy="273" r="1" xlink:href="#radial-gradient"/><radialGradient id="radial-gradient-44" cx="370.5" cy="284" r="1" xlink:href="#radial-gradient"/><radialGradient id="radial-gradient-45" cx="370.5" cy="270" r="1" xlink:href="#radial-gradient"/><radialGradient id="radial-gradient-46" cx="337.5" cy="264" r="1" xlink:href="#radial-gradient"/><radialGradient id="radial-gradient-47" cx="353.5" cy="290" r="1" xlink:href="#radial-gradient"/><radialGradient id="radial-gradient-48" cx="357.5" cy="267" r="1" xlink:href="#radial-gradient"/><radialGradient id="radial-gradient-49" cx="369.5" cy="255" r="1" xlink:href="#radial-gradient"/><radialGradient id="radial-gradient-50" cx="342.5" cy="281" r="1" xlink:href="#radial-gradient"/><radialGradient id="radial-gradient-51" cx="493.5" cy="273" r="1" xlink:href="#radial-gradient"/><radialGradient id="radial-gradient-52" cx="477.5" cy="266" r="1" xlink:href="#radial-gradient"/><radialGradient id="radial-gradient-53" cx="481.5" cy="281" r="1" xlink:href="#radial-gradient"/><radialGradient id="radial-gradient-54" cx="499.5" cy="290" r="1" xlink:href="#radial-gradient"/><radialGradient id="radial-gradient-55" cx="504.5" cy="268" r="1" xlink:href="#radial-gradient"/><radialGradient id="radial-gradient-56" cx="509.5" cy="282" r="1" xlink:href="#radial-gradient"/><radialGradient id="radial-gradient-57" cx="523.5" cy="268" r="1" xlink:href="#radial-gradient"/><radialGradient id="radial-gradient-58" cx="524.5" cy="294" r="1" xlink:href="#radial-gradient"/><radialGradient id="radial-gradient-59" cx="348.5" cy="251" r="1" xlink:href="#radial-gradient"/><radialGradient id="radial-gradient-60" cx="532.5" cy="285" r="1" xlink:href="#radial-gradient"/></defs><title>me-line</title><path class="cls-1" d="M977.79,751.17a35.47,35.47,0,0,1,9.44,1.29c9.58,2.67,17.33,9,19,12.36.43.85.34,1.23.31,1.33a25,25,0,0,1-4.68,1.29c-1.23.28-2.75.64-4.62,1.09-3.46.83-5,1.24-6,1.51-.78.21-1.21.32-2,.48a41.82,41.82,0,0,1-8.5.84,55.65,55.65,0,0,1-17-2.81c-4-1.31-12.28-4-12.31-7.06,0-2.41,5.25-4.7,8.4-6.07a43.49,43.49,0,0,1,17.89-4.25m0-1a44.77,44.77,0,0,0-18.29,4.33c-3.68,1.6-9,3.93-9,7,0,3.75,8.09,6.39,13,8a57,57,0,0,0,17.3,2.86,42.54,42.54,0,0,0,8.7-.86c1.78-.37,1.78-.5,8-2,8.52-2,9.65-2.08,10-3,1.19-3.13-8.54-11.81-20-15a36.16,36.16,0,0,0-9.71-1.33Z" transform="translate(-617.5 -541)"/><path class="cls-2" d="M966.5,751.5a15.17,15.17,0,0,0,1,10,14.24,14.24,0,0,0,7,7c.59.26,7.25,3.06,13-1a13.33,13.33,0,0,0,5-14" transform="translate(-617.5 -541)"/><path class="cls-3" d="M941.5,760.5a36.67,36.67,0,0,1,10-11c9.39-6.79,19.35-7,24-7,14.4-.07,24.81,6.65,30,10a64.51,64.51,0,0,1,9,7" transform="translate(-617.5 -541)"/><path class="cls-4" d="M967.88,721.25h0a89.12,89.12,0,0,1,26.32,4.21c14.13,4.36,29,11.68,28.31,15.88-.18,1.18-1.8,2.38-4.32,3.21a9.17,9.17,0,0,1-2.92.49c-3.49,0-6.6-2.12-10.53-4.79s-8.56-5.82-15-7.71a60,60,0,0,0-16.48-2.19c-6.26,0-15.55.91-24.25,5.26l-1.46.75c-2.4,1.25-5.39,2.81-7.67,2.81a3.26,3.26,0,0,1-1.87-.5c-1.81-1.21-2.29-4.54-1.59-6.89,1.82-6.14,12.09-8.12,18.23-9.3a69,69,0,0,1,13.19-1.23m0-1a70.31,70.31,0,0,0-13.38,1.25c-6.23,1.2-17,3.28-19,10-.82,2.77-.2,6.53,2,8a4.29,4.29,0,0,0,2.42.67c3,0,6.79-2.28,9.58-3.67,7.58-3.79,16.11-5.15,23.8-5.15a59.07,59.07,0,0,1,16.2,2.15c12.65,3.74,18.27,12.54,25.77,12.54a10.31,10.31,0,0,0,3.23-.54c.76-.25,4.61-1.51,5-4,.92-5.86-18.11-13.64-29-17a90.07,90.07,0,0,0-26.62-4.25Z" transform="translate(-617.5 -541)"/><path class="cls-5" d="M973.5,750.5a7.13,7.13,0,0,0,1,8,7,7,0,0,0,7,2c3.36-1,5.68-4.81,5-9" transform="translate(-617.5 -541)"/><path class="cls-6" d="M1110.05,756.49v1c6.24,0,11.83,3,23,8.89,3.42,1.82,6.57,3.69,6.47,5,0,.6-1,1.93-7.33,4.13-5.7,2-11.6,4.05-19.51,4.05-1,0-2.06,0-3.09-.11-3.43-.22-7.9-1.47-16.8-4-7.12-2-10.1-3.22-10.29-4.22-.45-2.48,6.52-6.31,9.5-7.94,5.32-2.93,10.35-5.69,17.55-5.88h.52v-1m0,0h-.55c-7.44.2-12.68,3.08-18,6-3.84,2.11-10.58,5.81-10,9,.24,1.34,1.76,2.42,11,5,9,2.51,13.47,3.77,17,4,1.09.07,2.14.11,3.16.11,8.08,0,14.13-2.12,19.84-4.11,7.07-2.47,7.93-4,8-5,.13-1.77-2.08-3.39-7-6-11.2-6-17-9-23.45-9Z" transform="translate(-617.5 -541)"/><path class="cls-7" d="M1079.5,765.5a33,33,0,0,1,14-14c11-5.51,21.7-2.49,27-1a48.22,48.22,0,0,1,24,16" transform="translate(-617.5 -541)"/><path class="cls-8" d="M1096.5,759.5c-.58,1.53-2,6,0,10,3.35,6.76,14.7,9.36,21,4,3.71-3.16,5.12-8.62,4-14" transform="translate(-617.5 -541)"/><path class="cls-9" d="M1102.5,757.5a8,8,0,0,0,2,8,7.41,7.41,0,0,0,7,2c3.48-1,5.94-5.28,5-10" transform="translate(-617.5 -541)"/><path class="cls-10" d="M1122.58,730.5a52,52,0,0,1,15.64,2c4.86,1.43,13,3.84,14.31,9.27.57,2.4-.13,5.15-1.51,5.89a1.88,1.88,0,0,1-.93.22c-1.61,0-3.81-1.44-5.93-2.83-.71-.47-1.44-.94-2.15-1.37-5.89-3.53-12.52-3.73-24.56-4.08l-1.92-.06c-3.91-.12-7.29-.22-10.21-.22-5.91,0-10.52.38-15.2,2.29a54.79,54.79,0,0,0-9,5c-3,1.89-5.3,3.39-7.45,3.39a4.4,4.4,0,0,1-1.74-.35c-1.65-.66-3.36-2.37-3.38-4.08,0-3.85,8.67-7.24,13.36-9.06,14.85-5.76,28-5.85,39.65-5.93h1.07m0-1h-1.08c-12.62.09-25.28.29-40,6-5.64,2.19-14.06,5.55-14,10,0,2.1,1.94,4.16,4,5a5.52,5.52,0,0,0,2.12.42c4.42,0,8.94-5.18,16.88-8.42,4.3-1.75,8.57-2.22,14.82-2.22,2.9,0,6.23.1,10.18.22,13.29.4,20,.42,26,4,2.89,1.73,6.09,4.34,8.59,4.34a2.88,2.88,0,0,0,1.41-.34c2-1.06,2.61-4.44,2-7-1.43-6-10.06-8.54-15-10a53.37,53.37,0,0,0-15.92-2Z" transform="translate(-617.5 -541)"/><path class="cls-11" d="M1030.5,766.5a94.07,94.07,0,0,1,0,33c-1.77,9.58-4.09,12.83-5,14-4.92,6.37-9.92,5.46-14,12-.56.9-5,8.16-2,15,.39.91,2.89,6.41,8,7a8.8,8.8,0,0,0,5-1" transform="translate(-617.5 -541)"/><path class="cls-12" d="M1019.5,841.5a9.75,9.75,0,0,1,4-4c3.64-1.87,7.38-.57,9,0a14.79,14.79,0,0,1,6,4" transform="translate(-617.5 -541)"/><path class="cls-13" d="M1036.5,849.5a21.08,21.08,0,0,0,6,2,21.74,21.74,0,0,0,11-1" transform="translate(-617.5 -541)"/><path class="cls-14" d="M1062.5,839.5a13,13,0,0,1,7-3,10.9,10.9,0,0,1,8,2,10,10,0,0,1,3,4" transform="translate(-617.5 -541)"/><path class="cls-15" d="M1015.94,626.77v1h0a38,38,0,0,1,7.36.71,34,34,0,0,1,9.9,3.68c3.34,1.72,6.49,3.34,12.3,3.34,5.41,0,8.67-1.38,12.13-2.84a42.5,42.5,0,0,1,6.12-2.19,30.28,30.28,0,0,1,7.53-.94c13.06,0,25.1,7.86,32.29,12.55l.38.26c5.56,3.62,7.53,5.85,14.86,14.14,3.63,4.1,8.6,9.72,16,17.7,11.31,12.27,17,17.86,20,20.87s3.58,3.54,4.85,5.92c4.16,7.81,4.48,12.81,5.19,23.76.51,7.94,1.21,18.81,3.7,35.91,1,7.13,1.82,11.41,2.39,14.53a88,88,0,0,1,1.6,12.39c.49,7.58.62,16.55-3,42.8-3.48,25.31-7.06,41.72-13,68.93-4.62,21.2-6.19,26.4-9.88,32.7-8.28,14.13-19.66,21.86-29.7,28.68-10.52,7.15-24.93,16.94-44.63,20.85a88.38,88.38,0,0,1-17.11,1.68c-28,0-51-13-66.21-21.57-14.26-8-35.81-20.19-50.63-44.65-5.43-8.94-6.32-13.4-10.08-32.16-1.9-9.5-4.51-22.52-8.8-41.54-2.89-12.8-5.19-22.31-7-29.94-4.76-19.72-6-25-5-35.74.89-8.78,7.92-24.79,21.93-56.7,7.4-16.87,21.19-48.28,42.82-71.72A64.15,64.15,0,0,1,988,636.37c4.12-2.35,15.09-8.6,27.94-8.6v-1m0,0c-13.11,0-24.19,6.31-28.44,8.73a65.11,65.11,0,0,0-16,13c-20.39,22.11-33.41,50.16-43,72-14.07,32-21.1,48.06-22,57-1.51,15,1.45,19.26,12,66,12.75,56.48,10.69,60.29,19,74,15,24.68,36.49,36.82,51,45,15,8.47,38.48,21.7,66.7,21.7a88.45,88.45,0,0,0,17.3-1.7c19.91-4,34.59-13.92,45-21,10.62-7.21,21.78-15,30-29,3.73-6.37,5.28-11.34,10-33,6.21-28.49,9.58-44.17,13-69,3.49-25.38,3.52-34.84,3-43-.62-9.71-1.55-10.19-4-27-6-40.84-1.67-46.25-9-60-2.64-5-2-2.1-25-27-22.08-24-22.5-26.46-31-32-7.11-4.64-19.61-13-33.22-13a31.17,31.17,0,0,0-7.78,1c-6.67,1.71-9.85,5-18,5h0c-10,0-11.56-4.93-22-7a38.77,38.77,0,0,0-7.56-.73Z" transform="translate(-617.5 -541)"/><path class="cls-16" d="M1037.66,877.47a27.44,27.44,0,0,1,3.88.33,74.4,74.4,0,0,0,7.92.7c1.49.06,3,.09,4.54.09s3,0,4.54-.09a65.14,65.14,0,0,0,7.77-.71,19,19,0,0,1,3-.29h.18c4,0,6.23,1.77,10.2,4.88a97,97,0,0,0,8.27,6,88.71,88.71,0,0,0,15,7.6c1.17.48,2.37,1,3,1.34a16,16,0,0,1-3.3.24c-3.84,0-9.31-.54-14.14-1-6.82-.67-11.77-1.65-14.7-2.92-.94-.4-1.67-.77-2.39-1.13a24.48,24.48,0,0,0-4.73-1.91c-2.49-.71-4.27-.88-11.26-1-3.59-.08-6.78-.13-9.48-.13-4,0-5.88.1-6.59.13-6.57.32-8.35.8-9.21,1a38.82,38.82,0,0,0-9.23,4.1,48.61,48.61,0,0,0-5.78,3.72,11.9,11.9,0,0,1-4,2.2,22.46,22.46,0,0,1-7.24,1l-2.43,0c-2.81,0-9.35-.18-10-1.21.3-.57,2.63-1.79,4.88-3a147.68,147.68,0,0,0,13.68-8c1.64-1.08,3-2.05,4.27-2.9a46.51,46.51,0,0,1,10.55-6,33.68,33.68,0,0,1,11.68-2.93l1.11,0m0-1-1.16,0a34.91,34.91,0,0,0-12,3c-6,2.39-8.51,4.7-15,9-12.46,8.24-19.5,10-19,12,.44,1.8,6.3,1.91,11,2l2.45,0a23.3,23.3,0,0,0,7.55-1c3.79-1.22,3.65-2.48,10-6a37.62,37.62,0,0,1,9-4c.94-.25,2.77-.7,9-1,.84,0,2.71-.13,6.54-.13,2.34,0,5.43,0,9.46.13,6.86.16,8.61.32,11,1,3.13.9,4.24,1.81,7,3,1.3.56,4.86,2,15,3,4.74.47,10.35,1,14.24,1,2.71,0,4.58-.27,4.76-1,.38-1.6-7.58-2.73-19-10-10.09-6.43-12.27-10.91-19-11h-.19c-2.65,0-3.92.72-10.81,1-1.64.07-3.15.09-4.5.09-1.91,0-3.47-.05-4.5-.09-7.1-.29-8.52-1-11.84-1Z" transform="translate(-617.5 -541)"/><path class="cls-17" d="M1014.5,900.5a29.84,29.84,0,0,0,12,4c4.73.48,5.81-.67,15-1,3.27-.12,2.14.06,11,0,8-.06,8.33-.2,11,0,6.34.47,7.1,1.49,10,1,2.61-.44,6.18-2,10-7" transform="translate(-617.5 -541)"/><path class="cls-18" d="M996.5,902.5a87.54,87.54,0,0,1,16,12c4,3.83,5.28,5.81,9,8,2.68,1.58,5.75,2.75,16,4,10.51,1.28,17.43,2.12,27,1,6.4-.75,10.46-1.27,15-4,4.13-2.48,6-5.16,10-10a199.36,199.36,0,0,1,15-16" transform="translate(-617.5 -541)"/><path class="cls-19" d="M918.5,845.5c-.64.82-4.36,5.52-9,5-2.7-.3-4.57-2.24-6-4-8.89-10.91-10.89-27.07-11-28-1.11-9.7.17-15.57,2-24,.91-4.2,2-7.79,5-9,2.66-1.08,5.58.23,7,1" transform="translate(-617.5 -541)"/><path class="cls-20" d="M903,793.32h0m-.6,1.72c.22,1.11.48,2.67.8,4.57l.34,2.06c.25,1.46.48,2.92.72,4.38.4,2.51.81,5.09,1.29,7.63.29,1.59.55,2.89.77,4a18.5,18.5,0,0,1,.61,4.05,1,1,0,0,1-.31,0c-1.29,0-3.9-1.42-5.22-3.74-.89-1.56-.73-2.78-.4-5.22a51.11,51.11,0,0,0,.53-9.31v-.07a27.64,27.64,0,0,1,.2-4.64,34.53,34.53,0,0,1,.67-3.72m.13-2.54c-.79,0-1.53,4-1.79,6.13a29.91,29.91,0,0,0-.21,4.87c.3,9.55-1.92,11.63,0,15,1.46,2.55,4.38,4.24,6.09,4.24a1.58,1.58,0,0,0,.91-.24c.91-.64.23-2.37-1-9-.74-4-1.33-8-2-12-1.18-7-1.45-9-2-9Z" transform="translate(-617.5 -541)"/><path class="cls-21" d="M951.5,935.5a118.3,118.3,0,0,1-2,65" transform="translate(-617.5 -541)"/><path class="cls-22" d="M1129.5,952.5v29" transform="translate(-617.5 -541)"/><path class="cls-23" d="M1024.5,893.5a199.54,199.54,0,0,0,49,1" transform="translate(-617.5 -541)"/><path class="cls-24" d="M1022.5,903.5c3.76-.81,7.77-1.5,12-2a133.07,133.07,0,0,1,43,2" transform="translate(-617.5 -541)"/><path class="cls-25" d="M1029.5,942.5a83.81,83.81,0,0,1,51-2" transform="translate(-617.5 -541)"/><path class="cls-26" d="M987.5,635.5a117.73,117.73,0,0,0-33,17c-18.21,13.47-16.74,20.9-38,44-20.17,21.92-32.12,26.6-48,51-5.75,8.83-7.83,13.82-9,19-4.37,19.26,5.14,35.09,10,46,20,44.78,3,99.19-5,125-5.41,17.4-8.21,20.85-17,51-6.35,21.79-10.48,40-13,52" transform="translate(-617.5 -541)"/><path class="cls-27" d="M917.5,722.5c-1.8,3-4.54,7.58-8,13-14.85,23.23-20.24,26.86-24,36-4.89,11.9-1.6,20,2,43,3.3,21.14,3.23,42.68,5,64,5.27,63.4,7.93,95.1,1,110-11.32,24.32-33.44,37.26-78,63-32.79,18.94-53.72,14.43-78,36-16.88,15-26,32.29-31,44" transform="translate(-617.5 -541)"/><path class="cls-28" d="M870.5,744.5a225.59,225.59,0,0,1,58-139c12.77-14.06,35.76-38.8,74-53a171.33,171.33,0,0,1,45-10c6.4-.53,27.57-2.16,49,3,37.06,8.93,60.16,34.69,73,49,56.15,62.59,58,152.75,58,175" transform="translate(-617.5 -541)"/><path class="cls-29" d="M1042.5,585.5c4.94-5.23,12.87-12,24-15,28.45-7.73,55.83,14.8,67,24,25.46,21,27.92,36.14,73,132,27.12,57.66,31.43,61.72,34,81,3,22.68.27,41.17,10,74,5.31,17.93,7.48,17,12,34,9.15,34.51,1.56,43.37,9,69,6.88,23.72,14.29,19.24,29,52,4.6,10.25,15.82,35.77,18,67,2,29.39-7.92,30.45-9,67-.41,13.91-1,40.21,10,69a146.26,146.26,0,0,0,29,47c-.35.26-37.83-35.21-60-92a302.12,302.12,0,0,1-19-79" transform="translate(-617.5 -541)"/><path class="cls-30" d="M1042.5,617.5c-7-5.37-36-26.31-67-18-19.21,5.15-31.33,19.4-48,39a217.18,217.18,0,0,0-28,42" transform="translate(-617.5 -541)"/><path class="cls-31" d="M1045.5,634.5a128.31,128.31,0,0,1,12-93" transform="translate(-617.5 -541)"/><path class="cls-32" d="M1223.5,924.5a324.59,324.59,0,0,0,17,89c11.73,34.3,22.39,46.42,27,73,3.64,21,3.87,53-16,96" transform="translate(-617.5 -541)"/><path class="cls-33" d="M1167.5,747.5a279.9,279.9,0,0,0,84,137" transform="translate(-617.5 -541)"/><path class="cls-34" d="M1143.5,938.5c-5.19,14.44-12.2,35.33-19,61-10.55,39.81-15.82,59.71-15,85,1.19,36.75,12.82,36.44,12,68-1.07,41.55-21.39,48.46-18,81,4.1,39.36,37.6,65.29,38,65s-26.38-21.42-26-51c.29-22.55,16.08-28.25,24-64,5-22.74,1.62-33.83,6-35,8.32-2.23,22.91,46.41,30,70,1.36,4.53,2.93,10,2,17-2.94,22.11-27.66,35.41-28,35s28.1-12,37-39c12.65-38.4-20.52-75.8-12-82,6-4.39,29,9.71,43,32,19.46,31,5.59,52.68,17,83,19.94,53,97.81,67.37,98,67a116.06,116.06,0,0,1-45-29c-4.32-4.47-23.43-25-32-59-6.48-25.75,1.09-34.09-3-58-6.76-39.56-24.07-56.43-39-87-15.87-32.5-18.25-65-23-130a730.55,730.55,0,0,1,5-153" transform="translate(-617.5 -541)"/><path class="cls-35" d="M949.5,1000.5c-2.78,7.15-7.9,17.85-17.22,27-14.9,14.63-32.07,17.19-38.75,18-46.26,5.63-103.9,30.86-111.07,34-21.53,9.42-59.12,26.47-88.69,68-6.74,9.47-14.15,21.74-30.13,62a1270.69,1270.69,0,0,0-45.64,138" transform="translate(-617.5 -541)"/><path class="cls-36" d="M783.5,1233.5a488.65,488.65,0,0,1,9,109" transform="translate(-617.5 -541)"/><path class="cls-37" d="M1267.5,1247.5v25" transform="translate(-617.5 -541)"/><path class="cls-38" d="M1265.5,1304.5q1,20,2,40" transform="translate(-617.5 -541)"/><path class="cls-39" d="M1318.5,1099.5a160.54,160.54,0,0,1,49,43c19.36,25.94,26.13,52.3,33,79,8,31.06,5.87,41,16,76a417.83,417.83,0,0,0,15,43" transform="translate(-617.5 -541)"/><path class="cls-40" d="M915.5,1039.5a226.78,226.78,0,0,0,57,45c58.6,32.48,116.11,29.75,141,27" transform="translate(-617.5 -541)"/><circle class="cls-41" cx="390.5" cy="252" r="0.5"/><circle class="cls-42" cx="399.5" cy="262" r="0.5"/><circle class="cls-43" cx="385.5" cy="273" r="0.5"/><circle class="cls-44" cx="370.5" cy="284" r="0.5"/><circle class="cls-45" cx="370.5" cy="270" r="0.5"/><circle class="cls-46" cx="337.5" cy="264" r="0.5"/><circle class="cls-47" cx="353.5" cy="290" r="0.5"/><circle class="cls-48" cx="357.5" cy="267" r="0.5"/><circle class="cls-49" cx="369.5" cy="255" r="0.5"/><circle class="cls-50" cx="342.5" cy="281" r="0.5"/><circle class="cls-51" cx="493.5" cy="273" r="0.5"/><circle class="cls-52" cx="477.5" cy="266" r="0.5"/><circle class="cls-53" cx="481.5" cy="281" r="0.5"/><circle class="cls-54" cx="499.5" cy="290" r="0.5"/><circle class="cls-55" cx="504.5" cy="268" r="0.5"/><circle class="cls-56" cx="509.5" cy="282" r="0.5"/><circle class="cls-57" cx="523.5" cy="268" r="0.5"/><circle class="cls-58" cx="524.5" cy="294" r="0.5"/><circle class="cls-59" cx="348.5" cy="251" r="0.5"/><circle class="cls-60" cx="532.5" cy="285" r="0.5"/></svg>